<svg id="Capa_1" enable-background="new 0 0 512 512" height="512" viewBox="0 0 512 512" width="512" xmlns="http://www.w3.org/2000/svg"><g><circle cx="273.765" cy="174.786" r="8.273"/><path d="m217.252 204.585h35.037c4.143 0 7.5-3.358 7.5-7.5s-3.357-7.5-7.5-7.5h-35.037c-4.143 0-7.5 3.358-7.5 7.5s3.358 7.5 7.5 7.5z"/><circle cx="195.777" cy="174.786" r="8.273"/><path d="m234.771 131.106c-68.583 0-124.38 55.797-124.38 124.38s55.797 124.38 124.38 124.38 124.38-55.796 124.38-124.38c0-68.583-55.797-124.38-124.38-124.38zm0 233.76c-60.313 0-109.38-49.067-109.38-109.38 0-60.312 49.067-109.38 109.38-109.38s109.38 49.068 109.38 109.38c0 60.313-49.068 109.38-109.38 109.38z"/><path d="m323.504 226.702c-.001 0-.001 0 0 0-2.422-12.716-14.748-21.09-27.451-18.67l-49.949 9.509c-3.593-1.075-7.395-1.661-11.333-1.661-13.974 0-26.271 7.281-33.323 18.241l-44.089 25.43c-8.634 5-13.184 14.934-11.32 24.719 2.418 12.7 14.723 21.096 27.45 18.67l49.949-9.509c3.593 1.075 7.395 1.661 11.333 1.661 13.974 0 26.271-7.281 33.323-18.241l44.09-25.43c8.633-5.001 13.183-14.934 11.32-24.719zm-152.82 61.503c-4.587.874-9.036-2.149-9.91-6.74-.673-3.533.976-7.123 4.091-8.926l30.297-17.475c-.12 9.417 3.195 19.033 9.861 26.603zm64.087-8.113c-14.24 0-25.553-12.125-24.539-26.322.009-.136.019-.271.031-.407 1.133-12.889 11.934-22.481 24.508-22.481 12.605 0 23.47 9.661 24.518 22.615 1.153 14.49-10.324 26.595-24.518 26.595zm69.907-41.658-30.298 17.475c.12-9.369-3.167-19-9.861-26.603l34.339-6.538c4.586-.874 9.036 2.149 9.91 6.74.673 3.532-.976 7.122-4.09 8.926z"/><path d="m277.227 85.62h-11.763v-27.211c12.137-1.069 21.689-11.285 21.689-23.695.001-19.141-15.571-34.714-34.712-34.714h-35.336c-19.142 0-34.714 15.573-34.714 34.714 0 12.41 9.552 22.625 21.689 23.695v29.997c-79.065 14.488-139.176 83.894-139.176 167.083 0 68.739 41.042 128.071 99.906 154.784v39.516h-8.298c-17.152 0-31.106 13.954-31.106 31.106 0 17.151 13.954 31.105 31.106 31.105h39.403c7.917 0 15.334-2.975 20.966-8.126 5.531 5.045 12.883 8.126 20.941 8.126h39.404c17.151 0 31.105-13.954 31.105-31.105v-58.401c78.862-14.655 138.764-83.961 138.764-167.004.001-93.667-76.202-169.87-169.868-169.87zm-79.836-50.906c0-10.87 8.844-19.714 19.714-19.714h35.336c10.87 0 19.713 8.844 19.713 19.714 0 4.849-3.944 8.793-8.793 8.793-7.17 0-48.634 0-57.176 0-4.849 0-8.794-3.944-8.794-8.793zm53.073 23.793v27.113h-15.691c-5.262 0-10.807.278-15.692.726v-27.839zm-38.442 405.017c-3.571 5.312-5.305 11.425-5.305 17.37 0 3.232.537 6.757 1.704 10.147-3.023 3.736-7.581 5.958-12.506 5.958h-39.403c-8.881 0-16.106-7.225-16.106-16.105 0-8.881 7.226-16.106 16.106-16.106h15.798c4.143 0 7.5-3.357 7.5-7.5v-17.12c10.4 3.102 21.163 5.35 32.212 6.656zm81.311 17.371c0 8.88-7.225 16.105-16.105 16.105h-39.404c-8.831 0-16.105-7.18-16.105-16.105 0-8.791 7.139-16.106 16.105-16.106h15.798c4.143 0 7.5-3.357 7.5-7.5v-10.927c11.063-1.518 21.826-3.979 32.212-7.299v41.832zm-66.311-29.17v-26.552c2.57.116 5.153.184 7.751.184h11.348v24.431h-8.298c-3.796 0-7.435.687-10.801 1.937zm7.751-41.368c-85.307 0-154.869-69.404-154.869-154.869 0-86.067 70.173-154.869 154.869-154.869 85.395 0 154.868 69.474 154.868 154.869s-69.474 154.869-154.868 154.869zm78.444-4.221c56.201-29.404 91.424-87.402 91.424-150.647 0-64.714-36.745-122.114-91.424-150.647 68.101 16.265 118.879 77.636 118.879 150.647s-50.778 134.382-118.879 150.647z"/></g></svg>