<svg id="Capa_1" enable-background="new 0 0 512 512" height="512" viewBox="0 0 512 512" width="512" xmlns="http://www.w3.org/2000/svg"><g><g><path d="m374.117 296.88-118.117 8.12-118.117-8.12c0-13.807 11.193-25 25-25h186.235c13.806 0 24.999 11.193 24.999 25z" fill="#678d98"/><path d="m374.12 296.88-14.62 4.62-13.19-4.62c0-13.81-11.19-25-25-25h27.81c13.8 0 25 11.19 25 25z" fill="#537983"/><path d="m461.688 504.5h-411.376v-120.118c0-48.364 39.207-87.571 87.571-87.571h236.235c48.364 0 87.571 39.207 87.571 87.571v120.118z" fill="#deecf1"/><path d="m461.69 384.38v120.12h-27.94l.13-120.12c0-48.36-39.21-87.57-87.57-87.57h27.81c48.364 0 87.57 39.206 87.57 87.57z" fill="#a8d3d8"/><path d="m378.298 472.892h-244.596c-25.226 0-45.675-20.449-45.675-45.675v-51.601c0-25.226 20.449-45.675 45.675-45.675h244.597c25.226 0 45.675 20.449 45.675 45.675v51.601c-.001 25.226-20.45 45.675-45.676 45.675z" fill="#8ebac5"/><path d="m423.97 375.62v51.6c0 25.22-20.45 45.67-45.67 45.67h-25.33c25.22 0 45.67-20.45 45.67-45.67v-51.6c0-25.23-20.45-45.68-45.67-45.68h25.33c25.22 0 45.67 20.45 45.67 45.68z" fill="#7ca1b1"/><g><g fill="#a2e62e"><path d="m380.389 410.171c0 11.41-4.012 21.881-10.714 30.079-8.72-10.691-21.997-17.509-36.874-17.509-14.865 0-28.142 6.818-36.862 17.509-6.702-8.198-10.714-18.669-10.714-30.079 0-26.275 21.301-47.588 47.576-47.588 26.287.001 47.588 21.313 47.588 47.588z"/><path d="m226.775 410.171c0 11.41-4.012 21.881-10.714 30.079-8.72-10.691-21.997-17.509-36.874-17.509-14.865 0-28.142 6.818-36.862 17.509-6.702-8.198-10.714-18.669-10.714-30.079 0-26.275 21.301-47.588 47.576-47.588 26.287.001 47.588 21.313 47.588 47.588z"/></g></g><path d="m440.88 37.114v94.32c0 16.355-12.138 29.614-27.112 29.614h-92.842c-19.085 0-36.185 12.881-42.967 32.366l-12.705 36.497c-3.236 9.295-15.273 9.295-18.509 0l-12.705-36.497c-6.783-19.485-23.883-32.366-42.967-32.366h-92.842c-14.973 0-27.112-13.259-27.112-29.614v-94.32c.001-16.355 12.139-29.614 27.112-29.614h315.537c14.974 0 27.112 13.259 27.112 29.614z" fill="#ffd15b"/><g fill="#feb137"><path d="m293.11 161.05h27.82c-19.09 0-36.19 12.88-42.97 32.36l-12.71 36.5c-3.23 9.3-15.27 9.3-18.5 0l-4.65-13.37 8.05-23.13c6.78-19.48 23.88-32.36 42.96-32.36z"/><path d="m440.88 37.11v94.32c0 16.36-12.14 29.62-27.11 29.62h-27.81c14.97 0 27.11-13.26 27.11-29.62v-94.32c0-16.35-12.14-29.61-27.11-29.61h27.81c14.97 0 27.11 13.26 27.11 29.61z"/></g></g><g><path d="m431.474 427.217v-51.601c0-29.32-23.854-53.175-53.175-53.175h-244.597c-29.321 0-53.175 23.854-53.175 53.175v51.601c0 29.32 23.854 53.175 53.175 53.175h244.597c29.32 0 53.175-23.855 53.175-53.175zm-335.947 0v-51.601c0-21.05 17.125-38.175 38.175-38.175h244.597c21.05 0 38.175 17.125 38.175 38.175v51.601c0 21.05-17.125 38.175-38.175 38.175h-244.597c-21.05 0-38.175-17.125-38.175-38.175z"/><path d="m332.801 355.084c-30.369 0-55.076 24.712-55.076 55.087 0 12.671 4.406 25.039 12.407 34.826 2.974 3.637 8.649 3.635 11.618-.007 7.646-9.373 18.964-14.749 31.051-14.749 12.096 0 23.417 5.376 31.062 14.749 2.971 3.641 8.644 3.644 11.619.007 8.001-9.787 12.407-22.155 12.407-34.826 0-30.375-24.712-55.087-55.088-55.087zm35.734 73.308c-9.883-8.445-22.471-13.15-35.734-13.15-13.258 0-25.841 4.704-35.723 13.15-2.865-5.582-4.354-11.76-4.354-18.221 0-22.104 17.979-40.087 40.076-40.087 22.104 0 40.088 17.983 40.088 40.087.001 6.461-1.488 12.639-4.353 18.221z"/><path d="m179.187 355.084c-30.369 0-55.076 24.712-55.076 55.087 0 12.671 4.406 25.039 12.407 34.826 2.974 3.638 8.649 3.634 11.619-.007 7.645-9.373 18.962-14.749 31.05-14.749 12.095 0 23.417 5.376 31.062 14.749 2.97 3.641 8.645 3.645 11.619.007 8.001-9.787 12.408-22.155 12.408-34.826-.001-30.375-24.713-55.087-55.089-55.087zm35.734 73.308c-9.882-8.445-22.47-13.15-35.734-13.15-13.258 0-25.841 4.705-35.723 13.15-2.865-5.582-4.354-11.76-4.354-18.221 0-22.104 17.978-40.087 40.076-40.087 22.105 0 40.088 17.983 40.088 40.087.001 6.461-1.487 12.639-4.353 18.221z"/><path d="m98.231 168.548h92.842c15.773 0 30.193 10.983 35.884 27.332l12.705 36.497c5.431 15.601 27.239 15.615 32.675 0l12.705-36.497c5.69-16.349 20.111-27.332 35.884-27.332h92.842c19.085 0 34.612-16.649 34.612-37.113v-94.32c.001-20.466-15.526-37.115-34.611-37.115h-95.769c-4.143 0-7.5 3.357-7.5 7.5s3.357 7.5 7.5 7.5h95.769c10.814 0 19.612 9.92 19.612 22.114v94.32c0 12.193-8.798 22.113-19.612 22.113h-92.842c-22.15 0-42.264 15.03-50.05 37.4l-12.705 36.497c-.869 2.496-3.475 2.497-4.343 0l-12.705-36.497c-7.787-22.37-27.9-37.4-50.05-37.4h-92.843c-10.814 0-19.612-9.92-19.612-22.113v-94.32c.001-12.194 8.798-22.114 19.612-22.114h184.769c4.143 0 7.5-3.357 7.5-7.5s-3.357-7.5-7.5-7.5h-184.769c-19.085 0-34.611 16.649-34.611 37.114v94.32c0 20.464 15.526 37.114 34.611 37.114z"/><path d="m107.974 68.783v37.394c0 4.143 3.358 7.5 7.5 7.5s7.5-3.357 7.5-7.5v-37.394c0-4.143-3.358-7.5-7.5-7.5s-7.5 3.358-7.5 7.5z"/><path d="m143.105 56.662v61.636c0 4.143 3.358 7.5 7.5 7.5s7.5-3.357 7.5-7.5v-61.636c0-4.143-3.358-7.5-7.5-7.5s-7.5 3.358-7.5 7.5z"/><path d="m178.237 73.328v28.303c0 4.143 3.358 7.5 7.5 7.5s7.5-3.357 7.5-7.5v-28.303c0-4.143-3.358-7.5-7.5-7.5s-7.5 3.358-7.5 7.5z"/><path d="m213.369 49.087v76.786c0 4.143 3.358 7.5 7.5 7.5s7.5-3.357 7.5-7.5v-76.786c0-4.143-3.358-7.5-7.5-7.5s-7.5 3.357-7.5 7.5z"/><path d="m248.5 56.662v61.636c0 4.143 3.358 7.5 7.5 7.5 4.143 0 7.5-3.357 7.5-7.5v-61.636c0-4.143-3.357-7.5-7.5-7.5-4.142 0-7.5 3.358-7.5 7.5z"/><path d="m283.632 49.087v76.786c0 4.143 3.357 7.5 7.5 7.5s7.5-3.357 7.5-7.5v-76.786c0-4.143-3.357-7.5-7.5-7.5s-7.5 3.357-7.5 7.5z"/><path d="m326.263 109.131c4.143 0 7.5-3.357 7.5-7.5v-28.303c0-4.143-3.357-7.5-7.5-7.5s-7.5 3.357-7.5 7.5v28.303c0 4.142 3.357 7.5 7.5 7.5z"/><path d="m368.895 118.298v-61.636c0-4.143-3.357-7.5-7.5-7.5s-7.5 3.357-7.5 7.5v61.636c0 4.143 3.357 7.5 7.5 7.5s7.5-3.358 7.5-7.5z"/><path d="m404.025 106.177v-37.394c0-4.143-3.357-7.5-7.5-7.5s-7.5 3.357-7.5 7.5v37.394c0 4.143 3.357 7.5 7.5 7.5s7.5-3.358 7.5-7.5z"/><path d="m483 497h-13.812v-112.617c0-50.185-39.087-91.406-88.416-94.835-3.334-14.4-16.257-25.168-31.656-25.168h-126.783c-4.142 0-7.5 3.357-7.5 7.5s3.358 7.5 7.5 7.5h126.784c6.94 0 12.947 4.062 15.775 9.932h-217.784c2.828-5.87 8.835-9.932 15.775-9.932h26.117c4.142 0 7.5-3.357 7.5-7.5s-3.358-7.5-7.5-7.5h-26.117c-15.399 0-28.321 10.768-31.656 25.168-49.328 3.428-88.416 44.65-88.416 94.835v112.617h-13.811c-4.142 0-7.5 3.357-7.5 7.5s3.358 7.5 7.5 7.5h303.807c4.143 0 7.5-3.357 7.5-7.5s-3.357-7.5-7.5-7.5h-274.995v-112.617c0-44.374 36.918-79.719 80.734-80.003 20.027-.13 174.946.093 232.375 0 44.732-.072 83.268 33.92 83.268 80.003v112.617h-85.189c-4.143 0-7.5 3.357-7.5 7.5s3.357 7.5 7.5 7.5h114c4.143 0 7.5-3.357 7.5-7.5s-3.357-7.5-7.5-7.5z"/></g></g></svg>