<svg id="Capa_1" enable-background="new 0 0 512 512" height="512" viewBox="0 0 512 512" width="512" xmlns="http://www.w3.org/2000/svg"><g><g><path d="m386.677 82.004v-67.079h-258.434v67.079c0 65.324 32.56 121.361 78.956 145.285 10.414 5.37 17.054 16.152 17.054 28.03v1.361c0 11.878-6.64 22.66-17.054 28.03-46.396 23.924-78.956 79.961-78.956 145.285v67.079h258.434v-67.079c0-65.324-32.56-121.361-78.956-145.285-10.414-5.37-17.054-16.152-17.054-28.03v-1.361c0-11.878 6.64-22.66 17.054-28.03 46.396-23.923 78.956-79.961 78.956-145.285z" fill="#eaf6ff"/><path d="m307.721 227.289c46.396-23.924 78.956-79.961 78.956-145.285v-67.079h-29.202v67.079c0 65.324-32.56 121.361-78.956 145.285-10.414 5.37-17.054 16.152-17.054 28.03v1.36c0 11.879 6.64 22.661 17.054 28.03 46.396 23.924 78.956 79.961 78.956 145.285v67.079h29.202v-67.079c0-65.324-32.56-121.361-78.956-145.285-10.414-5.37-17.054-16.152-17.054-28.03v-1.36c0-11.878 6.64-22.66 17.054-28.03z" fill="#d8ecfe"/><path d="m256 202.926c23.088-.473 45.121-12.127 62.188-32.951 13.472-16.438 22.647-36.922 26.853-59.399h-178.082c4.205 22.477 13.381 42.961 26.853 59.399 17.067 20.824 39.1 32.479 62.188 32.951z" fill="#fccd7f"/><path d="m372.076 60.781v-39.882h-243.833v51.648h229.232z" fill="#d8ecfe"/><path d="m357.475 20.899h29.202v51.648h-29.202z" fill="#c4e2ff"/><path d="m408.028 34.511v-17.374c0-9.464-7.541-17.137-16.844-17.137h-273.288c-9.303 0-16.844 7.673-16.844 17.137v17.373c0 9.465 7.541 17.137 16.844 17.137h273.288c9.303.001 16.844-7.672 16.844-17.136z" fill="#aa6a51"/><path d="m397.024 0h-29.202c9.303 0 16.844 7.673 16.844 17.137v17.373c0 9.465-7.541 17.137-16.844 17.137h29.202c9.303 0 16.844-7.673 16.844-17.137v-17.373c0-9.464-7.541-17.137-16.844-17.137z" fill="#935b44"/><g fill="#fccd7f"><path d="m265.186 260.88c0-4.341-3.459-7.861-7.726-7.861-4.268 0-7.726 3.52-7.726 7.861v4.192c0 4.342 3.459 7.861 7.726 7.861 4.268 0 7.726-3.519 7.726-7.861z"/><path d="m265.186 229.192c0-4.341-3.459-7.861-7.726-7.861-4.268 0-7.726 3.519-7.726 7.861v4.193c0 4.341 3.459 7.861 7.726 7.861 4.268 0 7.726-3.519 7.726-7.861z"/><path d="m265.186 324.257c0-4.341-3.459-7.861-7.726-7.861-4.268 0-7.726 3.52-7.726 7.861v4.192c0 4.342 3.459 7.861 7.726 7.861 4.268 0 7.726-3.519 7.726-7.861z"/><path d="m265.186 292.569c0-4.341-3.459-7.861-7.726-7.861-4.268 0-7.726 3.519-7.726 7.861v4.193c0 4.341 3.459 7.861 7.726 7.861 4.268 0 7.726-3.519 7.726-7.861z"/><path d="m321.108 379.344c-17.427-15.425-40.031-23.92-63.648-23.92s-46.222 8.495-63.648 23.92c-19.007 16.824-29.475 39.487-29.475 63.816v17.193 14.561h186.246v-14.561-17.193c0-24.329-10.467-46.992-29.475-63.816z"/></g><path d="m408.028 494.863v-17.373c0-9.465-7.541-17.137-16.844-17.137h-276.208c-9.303 0-16.844 7.673-16.844 17.137v17.373c0 9.465 7.541 17.137 16.844 17.137h276.208c9.302 0 16.844-7.673 16.844-17.137z" fill="#aa6a51"/><path d="m410.948 494.863v-17.373c0-9.465-7.541-17.137-16.844-17.137h-276.208c-9.303 0-16.844 7.673-16.844 17.137v17.373c0 9.465 7.541 17.137 16.844 17.137h276.208c9.303 0 16.844-7.673 16.844-17.137z" fill="#aa6a51"/><path d="m408.028 494.863v-17.373c0-9.465-7.541-17.137-16.844-17.137h-276.208c-9.303 0-16.844 7.673-16.844 17.137v17.373c0 9.465 7.541 17.137 16.844 17.137h276.208c9.302 0 16.844-7.673 16.844-17.137z" fill="#aa6a51"/><path d="m408.028 494.863v-17.373c0-9.465-7.541-17.137-16.844-17.137h-276.208c-9.303 0-16.844 7.673-16.844 17.137v17.373c0 9.465 7.541 17.137 16.844 17.137h276.208c9.302 0 16.844-7.673 16.844-17.137z" fill="#aa6a51"/><path d="m397.024 460.352h-29.202c9.303 0 16.844 7.673 16.844 17.137v17.373c0 9.465-7.541 17.137-16.844 17.137h29.202c9.303 0 16.844-7.673 16.844-17.137v-17.372c0-9.465-7.541-17.138-16.844-17.138z" fill="#935b44"/></g></g></svg>