<svg height="496pt" viewBox="0 0 496 496" width="496pt" xmlns="http://www.w3.org/2000/svg"><path d="m400 200-80 80h-48l-56-56v-48l80-80zm0 0" fill="#e6e9ed"/><path d="m336 200c0 22.089844-17.910156 40-40 40s-40-17.910156-40-40 17.910156-40 40-40 40 17.910156 40 40zm0 0" fill="#fcd770"/><path d="m231.921875 304.078125-31.203125 32.640625-41.4375-41.4375 32.640625-31.203125zm0 0" fill="#ff826e"/><path d="m272 280-39.761719 23.761719-.316406.316406-40-40 .316406-.316406 23.761719-39.761719zm0 0" fill="#ffeaa7"/><path d="m200.71875 336.71875-134.796875 140.882812c-6.320313 6.636719-15.121094 10.398438-24.320313 10.398438-9.28125 0-17.679687-3.761719-23.761718-9.839844-6.078125-6.082031-9.839844-14.480468-9.839844-23.761718 0-9.199219 3.761719-18 10.398438-24.320313l140.882812-134.796875zm0 0" fill="#e6e9ed"/><g fill="#ff826e"><path d="m472 246.640625c0 6-2.398438 11.757813-6.640625 16l-82.71875 82.71875c-4.242187 4.242187-10 6.640625-16 6.640625-6.242187 0-11.921875-2.558594-16-6.640625-4.082031-4.078125-6.640625-9.757813-6.640625-16 0-6 2.398438-11.757813 6.640625-16l82.71875-82.71875c4.242187-4.242187 10-6.640625 16-6.640625 6.242187 0 11.921875 2.558594 16 6.640625 4.082031 4.078125 6.640625 9.757813 6.640625 16zm0 0"/><path d="m272 46.640625c0 6-2.398438 11.757813-6.640625 16l-82.71875 82.71875c-4.242187 4.242187-10 6.640625-16 6.640625-6.242187 0-11.921875-2.558594-16-6.640625-4.082031-4.078125-6.640625-9.757813-6.640625-16 0-6 2.398438-11.757813 6.640625-16l82.71875-82.71875c4.242187-4.242187 10-6.640625 16-6.640625 6.242187 0 11.921875 2.558594 16 6.640625 4.082031 4.078125 6.640625 9.757813 6.640625 16zm0 0"/><path d="m488 294.640625c0 6-2.398438 11.757813-6.640625 16l-50.71875 50.71875c-4.242187 4.242187-10 6.640625-16 6.640625-6.242187 0-11.921875-2.558594-16-6.640625-4.082031-4.078125-6.640625-9.757813-6.640625-16 0-6 2.398438-11.757813 6.640625-16l50.71875-50.71875c4.242187-4.242187 10-6.640625 16-6.640625 6.242187 0 11.921875 2.558594 16 6.640625 4.082031 4.078125 6.640625 9.757813 6.640625 16zm0 0"/><path d="m440 214.640625c0 6-2.398438 11.757813-6.640625 16l-82.71875 82.71875c-4.242187 4.242187-10 6.640625-16 6.640625-6.242187 0-11.921875-2.558594-16-6.640625-4.082031-4.078125-6.640625-9.757813-6.640625-16 0-6 2.398438-11.757813 6.640625-16l82.71875-82.71875c4.242187-4.242187 10-6.640625 16-6.640625 6.242187 0 11.921875 2.558594 16 6.640625 4.082031 4.078125 6.640625 9.757813 6.640625 16zm0 0"/><path d="m304 78.640625c0 6-2.398438 11.757813-6.640625 16l-82.71875 82.71875c-4.242187 4.242187-10 6.640625-16 6.640625-6.242187 0-11.921875-2.558594-16-6.640625-4.082031-4.078125-6.640625-9.757813-6.640625-16 0-6 2.398438-11.757813 6.640625-16l82.71875-82.71875c4.242187-4.242187 10-6.640625 16-6.640625 6.242187 0 11.921875 2.558594 16 6.640625 4.082031 4.078125 6.640625 9.757813 6.640625 16zm0 0"/><path d="m224 30.640625c0 6-2.398438 11.757813-6.640625 16l-50.71875 50.71875c-4.242187 4.242187-10 6.640625-16 6.640625-6.242187 0-11.921875-2.558594-16-6.640625-4.082031-4.078125-6.640625-9.757813-6.640625-16 0-6 2.398438-11.757813 6.640625-16l50.71875-50.71875c4.242187-4.242187 10-6.640625 16-6.640625 6.242187 0 11.921875 2.558594 16 6.640625 4.082031 4.078125 6.640625 9.757813 6.640625 16zm0 0"/></g><path d="m473.527344 265.238281c4.121094-5.328125 6.472656-11.757812 6.472656-18.605469 0-16.898437-13.742188-30.632812-30.625-30.632812-.519531 0-1.007812.121094-1.519531.152344.023437-.511719.144531-1.007813.144531-1.519532 0-16.898437-13.742188-30.632812-30.625-30.632812-6.128906 0-11.976562 1.792969-16.949219 5.113281l-93.539062-93.539062c3.320312-4.980469 5.113281-10.820313 5.113281-16.941407 0-16.898437-13.742188-30.632812-30.625-30.632812-.519531 0-1.007812.121094-1.519531.152344.023437-.511719.144531-1.007813.144531-1.519532 0-16.898437-13.742188-30.632812-30.625-30.632812-6.855469 0-13.285156 2.351562-18.613281 6.472656-3.601563-12.914062-15.347657-22.472656-29.386719-22.472656-8.183594 0-15.871094 3.183594-21.65625 8.976562l-50.75 50.742188c-5.785156 5.785156-8.96875 13.472656-8.96875 21.648438 0 14.046874 9.558594 25.792968 22.472656 29.386718-4.121094 5.335938-6.472656 11.773438-6.472656 18.613282 0 16.898437 13.742188 30.632812 30.625 30.632812.519531 0 1.007812-.121094 1.519531-.152344-.023437.511719-.144531 1.007813-.144531 1.519532 0 16.898437 13.742188 30.632812 30.625 30.632812 3.246094 0 6.367188-.640625 9.375-1.601562v31.402343l-22.078125 36.953125-173.074219 165.535156c-8.160156 7.808594-12.847656 18.773438-12.847656 30.078126 0 22.960937 18.679688 41.632812 41.632812 41.632812 11.304688 0 22.261719-4.679688 30.078126-12.847656l165.5625-173.082032 36.933593-22.070312h31.402344c-.96875 3-1.609375 6.128906-1.609375 9.367188 0 16.898437 13.742188 30.632812 30.625 30.632812.519531 0 1.007812-.121094 1.519531-.152344-.023437.511719-.144531 1.007813-.144531 1.519532 0 16.898437 13.742188 30.632812 30.625 30.632812 6.855469 0 13.285156-2.351562 18.613281-6.472656 3.601563 12.914062 15.347657 22.472656 29.386719 22.472656 8.183594 0 15.871094-3.183594 21.65625-8.976562l50.75-50.742188c5.785156-5.785156 8.96875-13.472656 8.96875-21.648438 0-14.046874-9.558594-25.792968-22.472656-29.394531zm-156.839844 6.761719h-41.375l-51.3125-51.3125v-41.375l72-72 92.6875 92.6875zm-114.75-9.257812 15.628906-25.863282 41.523438 41.519532-25.976563 15.523437zm-65.9375-181.375c0-3.902344 1.519531-7.582032 4.28125-10.34375l50.75-50.742188c2.730469-2.722656 6.488281-4.28125 10.34375-4.28125 8.066406 0 14.625 6.558594 14.625 14.632812 0 3.902344-1.519531 7.574219-4.28125 10.335938l-7.078125 7.078125-43.671875 43.664063c-2.730469 2.730468-6.488281 4.289062-10.34375 4.289062-8.066406 0-14.625-6.558594-14.625-14.632812zm30.625 62.632812c-8.066406 0-14.625-6.558594-14.625-14.632812 0-3.902344 1.519531-7.582032 4.28125-10.34375l66.75-66.75s0 0 0-.007813l16-15.992187c2.730469-2.714844 6.488281-4.273438 10.34375-4.273438 8.066406 0 14.625 6.558594 14.625 14.632812 0 3.902344-1.519531 7.582032-4.28125 10.34375l-82.75 82.734376c-2.730469 2.730468-6.488281 4.289062-10.34375 4.289062zm17.375 17.367188c0-3.902344 1.519531-7.582032 4.28125-10.34375l82.75-82.742188c2.730469-2.722656 6.488281-4.28125 10.34375-4.28125 8.066406 0 14.625 6.558594 14.625 14.632812 0 3.902344-1.519531 7.582032-4.28125 10.34375l-82.75 82.734376c-2.730469 2.730468-6.488281 4.289062-10.34375 4.289062-8.066406 0-14.625-6.558594-14.625-14.632812zm7.808594 113.871093 28.945312 28.945313-20.167968 21.082031-29.859376-29.859375zm-131.65625 196.851563c-4.816406 5.03125-11.558594 7.910156-18.519532 7.910156-14.128906 0-25.632812-11.496094-25.632812-25.632812 0-6.960938 2.878906-13.710938 7.910156-18.519532l135.25-129.375 30.359375 30.359375zm274.472656-160.089844c-8.066406 0-14.625-6.558594-14.625-14.632812 0-3.902344 1.519531-7.582032 4.28125-10.34375l82.75-82.742188c2.730469-2.722656 6.488281-4.28125 10.34375-4.28125 8.066406 0 14.625 6.558594 14.625 14.632812 0 3.902344-1.519531 7.582032-4.28125 10.34375l-82.75 82.742188c-2.730469 2.722656-6.488281 4.28125-10.34375 4.28125zm32 32c-8.066406 0-14.625-6.558594-14.625-14.632812 0-3.902344 1.519531-7.582032 4.28125-10.34375l82.75-82.742188c2.730469-2.722656 6.488281-4.28125 10.34375-4.28125 8.066406 0 14.625 6.558594 14.625 14.632812 0 3.902344-1.519531 7.582032-4.28125 10.34375l-66.75 66.75v.007813l-16 15.992187c-2.730469 2.714844-6.488281 4.273438-10.34375 4.273438zm109.09375-39.023438-50.75 50.742188c-2.730469 2.722656-6.488281 4.28125-10.34375 4.28125-8.066406 0-14.625-6.558594-14.625-14.632812 0-3.902344 1.519531-7.574219 4.28125-10.335938l7.078125-7.078125 43.671875-43.664063c2.730469-2.730468 6.488281-4.289062 10.34375-4.289062 8.066406 0 14.625 6.558594 14.625 14.632812 0 3.902344-1.519531 7.574219-4.28125 10.34375zm0 0"/><path d="m296 152c-26.472656 0-48 21.527344-48 48s21.527344 48 48 48 48-21.527344 48-48-21.527344-48-48-48zm0 80c-17.648438 0-32-14.351562-32-32s14.351562-32 32-32 32 14.351562 32 32-14.351562 32-32 32zm0 0"/></svg>