<svg id="Capa_1" enable-background="new 0 0 512.001 512.001" height="512" viewBox="0 0 512.001 512.001" width="512" xmlns="http://www.w3.org/2000/svg" xmlns:xlink="http://www.w3.org/1999/xlink"><linearGradient id="SVGID_1_" gradientUnits="userSpaceOnUse" x1="278.501" x2="278.501" y1="496.001" y2="61.001"><stop offset="0" stop-color="#ffbef9"/><stop offset="1" stop-color="#fff1ff"/></linearGradient><linearGradient id="SVGID_2_" gradientUnits="userSpaceOnUse" x1="240" x2="240" y1="496.001" y2="16.001"><stop offset="0" stop-color="#a93aff"/><stop offset="1" stop-color="#ff81ff"/></linearGradient><g><g><g><path d="m435 256.001c0-107.52-87.48-195-195-195s-195 87.48-195 195 87.48 195 195 195 195-87.481 195-195zm74.48 156.679c-4.629-6.929-13.975-8.716-20.801-4.16-.85.571-90.066 57.48-248.68 57.48-8.291 0-15 6.709-15 15s6.709 15 15 15c167.607 0 261.482-59.971 265.32-62.52 6.886-4.599 8.761-13.9 4.161-20.8z" fill="url(#SVGID_1_)"/></g></g><g><g><path d="m240 16.001c-132.299 0-240 107.699-240 240 0 132.299 107.701 240 240 240s240-107.701 240-240c0-132.301-107.701-240-240-240zm0 60c39.901 0 60 15 60 45 0 30.899-23.401 90-60 90s-60-59.101-60-90c0-30 20.099-45 60-45zm15 180c0 8.399-6.599 15-15 15s-15-6.601-15-15c0-8.401 6.599-15 15-15s15 6.599 15 15zm-195 0c0-39.9 15-60 45-60 30.901 0 90 23.399 90 60 0 36.599-59.099 60-90 60-30 0-45-20.102-45-60zm180 180c-39.901 0-60-15-60-45 0-30.901 23.401-90 60-90s60 59.099 60 90c0 30-20.099 45-60 45zm135-120c-30.901 0-90-23.401-90-60 0-36.601 59.099-60 90-60 30 0 45 20.099 45 60 0 39.898-15 60-45 60z" fill="url(#SVGID_2_)"/></g></g></g></svg>