<svg height="512pt" viewBox="-70 0 512 512.00003" width="512pt" xmlns="http://www.w3.org/2000/svg"><path d="m362.035156 115.070312c-3.71875-2.714843-8.292968-4.316406-13.238281-4.316406h-152.539063c-.078124 0-.15625 0-.230468.003906h-47.859375c-.535157-1.605468-1.148438-3.183593-1.835938-4.726562-5.59375-12.492188-15.605469-21.195312-28.195312-24.511719-15.164063-3.996093-32.28125 1.417969-42.667969 12.582031-7.761719-8.433593-19.34375-13.675781-31.582031-13.894531-4.160157-.078125-7.554688 3.226563-7.628907 7.367188-.074218 4.140625 3.222657 7.558593 7.367188 7.628906 10.128906.179687 19.828125 5.683594 24.136719 13.699219 1.527343 2.839844 4.472656 4.605468 7.6875 4.605468 3.21875 0 6.164062-1.765624 7.691406-4.605468 5.476563-10.1875 19.460937-15.964844 31.175781-12.875 10.402344 2.738281 15.707032 10.285156 18.324219 16.132812 4.609375 10.296875 4.339844 23.320313-.683594 33.179688-8.257812 16.191406-34.960937 38.125-56.507812 52.855468-9.566407-6.542968-20.152344-14.503906-29.6875-22.753906-.128907-.121094-.261719-.234375-.398438-.34375-11.765625-10.21875-21.878906-20.855468-26.417969-29.757812-6.15625-12.082032-5.015624-28.515625 2.722657-39.074219 2.445312-3.34375 1.722656-8.035156-1.621094-10.484375-3.339844-2.445312-8.03125-1.722656-10.480469 1.621094-11.074218 15.117187-12.710937 37.628906-3.984375 54.746094 5.476563 10.738281 16.222657 22.140624 27.574219 32.230468v56.632813c0 4.140625 3.359375 7.5 7.5 7.5s7.5-3.355469 7.5-7.5v-44.191407c9.199219 7.167969 17.371094 12.800782 21.757812 15.734376 1.683594 1.125 3.609376 1.6875 5.539063 1.6875 1.925781 0 3.855469-.5625 5.535156-1.6875 11.9375-7.980469 51.847657-35.921876 64.332031-60.40625 4.082032-8.007813 5.949219-17.238282 5.574219-26.394532h37.867188v371.246094h-133.109375c-4.132813 0-7.5-3.363281-7.5-7.5v-218.488281c0-4.144531-3.355469-7.5-7.5-7.5-4.140625 0-7.5 3.355469-7.5 7.5v218.488281c0 12.40625 10.09375 22.5 22.5 22.5h293.148437c12.40625 0 22.5-10.09375 22.5-22.5v-356.242188c0-7.464843-3.652343-14.09375-9.265625-18.1875zm-158.277344 10.6875h145.042969c1.613281 0 3.109375.511719 4.335938 1.382813 1.910156 1.359375 3.160156 3.59375 3.160156 6.113281v211.230469c0 6.167969-4.789063 11.234375-10.671875 11.300781-.042969 0-.082031 0-.125 0-3.59375 0-6.867188-1.746094-8.867188-4.664062v-83.253906c0-4.144532-3.359374-7.5-7.5-7.5-4.144531 0-7.5 3.355468-7.5 7.5v83.253906c-2.003906 2.910156-5.28125 4.664062-8.871093 4.664062-3.589844 0-6.863281-1.753906-8.867188-4.664062v-49.6875c0-4.140625-3.355469-7.5-7.5-7.5-4.140625 0-7.5 3.359375-7.5 7.5v49.6875c-2 2.910156-5.277343 4.664062-8.867187 4.664062s-6.867188-1.753906-8.867188-4.664062v-83.253906c0-4.144532-3.359375-7.5-7.5-7.5-4.144531 0-7.5 3.355468-7.5 7.5v83.253906c-2.003906 2.910156-5.277344 4.664062-8.867187 4.664062-3.59375 0-6.867188-1.753906-8.871094-4.664062v-49.6875c0-4.140625-3.355469-7.5-7.5-7.5-4.140625 0-7.5 3.359375-7.5 7.5v49.6875c-2 2.917968-5.273437 4.664062-8.867187 4.664062-.042969 0-.082032 0-.125 0-5.882813-.066406-10.671876-5.132812-10.671876-11.300781zm152.542969 363.742188c0 4.136719-3.363281 7.5-7.5 7.5h-42.964843v-43.433594h24.667968c6.890625 0 12.496094-5.605468 12.496094-12.5v-22.988281c0-6.894531-5.605469-12.5-12.496094-12.5h-64.332031c-6.894531 0-12.5 5.605469-12.5 12.5v22.988281c0 6.894532 5.605469 12.5 12.5 12.5h24.664063v43.433594h-87.078126v-128.644531c3.203126 1.519531 6.761719 2.386719 10.503907 2.429687 6.195312.074219 12.074219-2.050781 16.664062-5.839844 4.519531 3.722657 10.25 5.839844 16.363281 5.839844 6.117188 0 11.851563-2.117187 16.367188-5.84375 4.519531 3.726563 10.253906 5.84375 16.371094 5.84375 6.113281 0 11.847656-2.117187 16.367187-5.84375 4.519531 3.726563 10.25 5.84375 16.367188 5.84375 6.113281 0 11.84375-2.117187 16.363281-5.839844 4.515625 3.726563 10.246094 5.839844 16.367188 5.839844h.300781c3.746093-.042968 7.300781-.910156 10.507812-2.429687zm-87.628906-50.933594v-17.988281h59.332031v17.988281zm0 0"/><path d="m73.445312 330.050781v24.148438c0 6.894531 5.605469 12.5 12.496094 12.5h65.019532c6.894531 0 12.5-5.605469 12.5-12.5v-24.148438c0-6.894531-5.605469-12.5-12.5-12.5h-65.019532c-6.890625 0-12.496094 5.605469-12.496094 12.5zm15 2.5h60.019532v19.148438h-60.019532zm0 0"/><path d="m124.542969 298.097656c1.433593.957032 3.074219 1.4375 4.71875 1.4375 1.640625 0 3.285156-.480468 4.722656-1.4375 19.511719-13.042968 25.808594-22.671875 27.609375-26.207031 3.484375-6.832031 3.679688-15.480469.507812-22.566406-2.832031-6.324219-7.9375-10.742188-14.375-12.4375-6.386718-1.683594-13.265624-.207031-18.464843 3.507812-5.203125-3.714843-12.082031-5.191406-18.464844-3.507812-6.441406 1.695312-11.546875 6.113281-14.378906 12.4375-3.171875 7.085937-2.976563 15.734375.507812 22.566406 1.804688 3.535156 8.097657 13.160156 27.617188 26.207031zm-14.433594-42.644531c.96875-2.160156 2.484375-3.527344 4.507813-4.0625.480468-.125.988281-.1875 1.507812-.1875 2.429688 0 5.070312 1.316406 6.09375 3.222656 1.394531 2.59375 4.09375 4.207031 7.042969 4.207031 2.945312 0 5.644531-1.613281 7.046875-4.214843 1.238281-2.304688 4.863281-3.742188 7.597656-3.027344 2.023438.535156 3.539062 1.902344 4.507812 4.0625 1.320313 2.953125 1.25 6.820313-.183593 9.625-2.535157 4.972656-10.835938 12.222656-18.96875 18.046875-8.136719-5.824219-16.4375-13.078125-18.96875-18.046875-1.433594-2.804687-1.503907-6.671875-.183594-9.625zm0 0"/><path d="m166.855469 88.121094c1.53125 1.023437 3.28125 1.535156 5.035156 1.535156 1.75 0 3.5-.507812 5.023437-1.53125 7.625-5.097656 33.136719-22.96875 41.273438-38.925781 4.832031-9.484375 5.101562-21.488281.695312-31.328125-3.859374-8.621094-10.792968-14.632813-19.519531-16.929688-9.707031-2.558594-20.234375.242188-27.472656 6.65625-7.238281-6.414062-17.769531-9.210937-27.476563-6.65625-8.726562 2.296875-15.660156 8.308594-19.519531 16.929688-4.40625 9.839844-4.136719 21.84375.695313 31.328125 8.136718 15.957031 33.648437 33.828125 41.265625 38.921875zm-28.269531-64.125c1.390624-3.105469 4.195312-7.117188 9.644531-8.550782 1.09375-.289062 2.230469-.425781 3.378906-.425781 5.234375 0 10.691406 2.832031 12.992187 7.117188 1.445313 2.6875 4.238282 4.359375 7.289063 4.359375 3.046875 0 5.839844-1.671875 7.285156-4.359375 2.808594-5.226563 10.300781-8.285157 16.371094-6.691407 5.449219 1.433594 8.253906 5.445313 9.644531 8.550782 2.558594 5.714844 2.414063 12.933594-.367187 18.390625-4.75 9.308593-20.011719 22.007812-32.9375 31.011719-12.917969-9-28.183594-21.699219-32.933594-31.011719-2.78125-5.457031-2.925781-12.675781-.367187-18.390625zm0 0"/></svg>